<svg width="32" height="32" viewBox="0 0 32 32" fill="none" xmlns="http://www.w3.org/2000/svg">
<path d="M13.8865 15.6675C13.8865 15.6675 15.8674 15.5169 15.8674 13.1445C15.8674 10.7741 14.5239 9.60562 12.4704 9.60562L5.43555 9.59448V22.6942H12.634C12.634 22.6942 16.2332 22.8082 16.2332 18.7643C16.2332 18.7643 16.4976 15.6675 13.8865 15.6675ZM8.05317 11.5594H11.6524C11.6524 11.5594 12.884 11.5797 12.884 13.1779C12.884 14.8344 11.6524 14.8344 11.6524 14.8344H8.05317V11.5594ZM11.9796 20.7293H8.05317V16.7993H11.9796C11.9796 16.7993 13.9428 16.8196 13.9428 18.7643C13.9428 20.709 12.2623 20.7293 11.9796 20.7293Z" fill="white"/>
<path d="M21.7959 12.8696C16.8793 12.8696 16.8878 17.782 16.8878 17.782C16.8878 17.782 16.5606 22.6944 21.7959 22.6944C21.7959 22.6944 26.3767 22.6944 26.3767 18.7645H23.7591C23.7591 18.7645 23.7591 20.7295 21.7959 20.7295C21.7959 20.7295 19.8327 20.7295 19.8327 18.1095C19.8327 18.1095 25.0679 18.1095 26.3767 18.1095C26.3767 16.7996 26.3767 12.8696 21.7959 12.8696ZM19.8327 16.7996C19.8327 16.7996 19.7895 14.8346 21.7959 14.8346C23.8016 14.8346 23.7591 16.7996 23.7591 16.7996H19.8327Z" fill="white"/>
<path d="M24.414 10.9045H19.1787V12.2145H24.414V10.9045Z" fill="white"/>
</svg>
