<svg width="32" height="32" viewBox="0 0 32 32" fill="none" xmlns="http://www.w3.org/2000/svg">
<path d="M12.4164 15.9535C12.4164 14.0254 13.9785 12.462 15.906 12.462C17.8335 12.462 19.3965 14.0254 19.3965 15.9535C19.3965 17.8815 17.8335 19.4449 15.906 19.4449C13.9785 19.4449 12.4164 17.8815 12.4164 15.9535ZM10.5296 15.9535C10.5296 18.9238 12.9366 21.3315 15.906 21.3315C18.8755 21.3315 21.2825 18.9238 21.2825 15.9535C21.2825 12.9832 18.8755 10.5755 15.906 10.5755C12.9366 10.5755 10.5296 12.9832 10.5296 15.9535ZM20.2389 10.3622C20.2388 10.6108 20.3124 10.8538 20.4504 11.0606C20.5883 11.2673 20.7845 11.4285 21.0141 11.5237C21.2436 11.6189 21.4962 11.6439 21.74 11.5955C21.9837 11.5471 22.2076 11.4275 22.3834 11.2518C22.5592 11.0761 22.679 10.8522 22.7276 10.6084C22.7761 10.3646 22.7514 10.1119 22.6564 9.88223C22.5613 9.65254 22.4004 9.45618 22.1938 9.318C21.9872 9.17982 21.7444 9.10601 21.4958 9.10591H21.4953C21.1622 9.10606 20.8428 9.23846 20.6072 9.47402C20.3717 9.70957 20.2392 10.029 20.2389 10.3622V10.3622ZM11.676 24.4787C10.6551 24.4322 10.1003 24.2621 9.73154 24.1184C9.2427 23.928 8.89391 23.7013 8.52719 23.335C8.16047 22.9686 7.93347 22.6201 7.744 22.1311C7.60026 21.7624 7.43022 21.2073 7.38381 20.1861C7.33305 19.0821 7.32291 18.7505 7.32291 15.9536C7.32291 13.1566 7.33389 12.8259 7.38381 11.721C7.4303 10.6999 7.6016 10.1458 7.744 9.77605C7.93431 9.28706 8.16097 8.93817 8.52719 8.57134C8.8934 8.20452 9.24186 7.97745 9.73154 7.78792C10.1001 7.64414 10.6551 7.47405 11.676 7.42763C12.7796 7.37686 13.1112 7.36672 15.906 7.36672C18.7009 7.36672 19.0328 7.3777 20.1374 7.42763C21.1582 7.47414 21.7121 7.64548 22.0818 7.78792C22.5706 7.97745 22.9194 8.20502 23.2861 8.57134C23.6529 8.93766 23.879 9.28706 24.0693 9.77605C24.2131 10.1447 24.3831 10.6999 24.4295 11.721C24.4803 12.8259 24.4904 13.1566 24.4904 15.9536C24.4904 18.7505 24.4803 19.0812 24.4295 20.1861C24.383 21.2073 24.2121 21.7623 24.0693 22.1311C23.879 22.6201 23.6523 22.969 23.2861 23.335C22.9199 23.701 22.5706 23.928 22.0818 24.1184C21.7132 24.2622 21.1582 24.4323 20.1374 24.4787C19.0337 24.5294 18.7022 24.5396 15.906 24.5396C13.1099 24.5396 12.7793 24.5294 11.676 24.4787V24.4787ZM11.5893 5.54341C10.4746 5.59418 9.71295 5.77098 9.04778 6.02988C8.35891 6.29725 7.77574 6.65595 7.193 7.23794C6.61025 7.81993 6.25258 8.40418 5.98529 9.09326C5.72646 9.75904 5.54972 10.5205 5.49896 11.6355C5.44736 12.7522 5.43555 13.1092 5.43555 15.9535C5.43555 18.7978 5.44736 19.1548 5.49896 20.2715C5.54972 21.3866 5.72646 22.1479 5.98529 22.8137C6.25258 23.5024 6.61034 24.0873 7.193 24.669C7.77566 25.2508 8.35891 25.609 9.04778 25.8771C9.71421 26.136 10.4746 26.3128 11.5893 26.3636C12.7063 26.4143 13.0626 26.427 15.906 26.427C18.7495 26.427 19.1064 26.4152 20.2228 26.3636C21.3375 26.3128 22.0987 26.136 22.7643 25.8771C23.4527 25.609 24.0363 25.251 24.6191 24.669C25.2018 24.087 25.5587 23.5024 25.8268 22.8137C26.0856 22.1479 26.2632 21.3865 26.3131 20.2715C26.3639 19.1539 26.3757 18.7978 26.3757 15.9535C26.3757 13.1092 26.3639 12.7522 26.3131 11.6355C26.2623 10.5204 26.0856 9.75862 25.8268 9.09326C25.5587 8.4046 25.2009 7.82085 24.6191 7.23794C24.0372 6.65502 23.4527 6.29725 22.7651 6.02988C22.0987 5.77098 21.3374 5.59335 20.2236 5.54341C19.1072 5.49263 18.7503 5.47998 15.9069 5.47998C13.0634 5.47998 12.7063 5.49179 11.5893 5.54341Z" fill="white"/>
<path d="M12.4164 15.9535C12.4164 14.0254 13.9785 12.462 15.906 12.462C17.8335 12.462 19.3965 14.0254 19.3965 15.9535C19.3965 17.8815 17.8335 19.4449 15.906 19.4449C13.9785 19.4449 12.4164 17.8815 12.4164 15.9535ZM10.5296 15.9535C10.5296 18.9238 12.9366 21.3315 15.906 21.3315C18.8755 21.3315 21.2825 18.9238 21.2825 15.9535C21.2825 12.9832 18.8755 10.5755 15.906 10.5755C12.9366 10.5755 10.5296 12.9832 10.5296 15.9535ZM20.2389 10.3622C20.2388 10.6108 20.3124 10.8538 20.4504 11.0606C20.5883 11.2673 20.7845 11.4285 21.0141 11.5237C21.2436 11.6189 21.4962 11.6439 21.74 11.5955C21.9837 11.5471 22.2076 11.4275 22.3834 11.2518C22.5592 11.0761 22.679 10.8522 22.7276 10.6084C22.7761 10.3646 22.7514 10.1119 22.6564 9.88223C22.5613 9.65254 22.4004 9.45618 22.1938 9.318C21.9872 9.17982 21.7444 9.10601 21.4958 9.10591H21.4953C21.1622 9.10606 20.8428 9.23846 20.6072 9.47402C20.3717 9.70957 20.2392 10.029 20.2389 10.3622V10.3622ZM11.676 24.4787C10.6551 24.4322 10.1003 24.2621 9.73154 24.1184C9.2427 23.928 8.89391 23.7013 8.52719 23.335C8.16047 22.9686 7.93347 22.6201 7.744 22.1311C7.60026 21.7624 7.43022 21.2073 7.38381 20.1861C7.33305 19.0821 7.32291 18.7505 7.32291 15.9536C7.32291 13.1566 7.33389 12.8259 7.38381 11.721C7.4303 10.6999 7.6016 10.1458 7.744 9.77605C7.93431 9.28706 8.16097 8.93817 8.52719 8.57134C8.8934 8.20452 9.24186 7.97745 9.73154 7.78792C10.1001 7.64414 10.6551 7.47405 11.676 7.42763C12.7796 7.37686 13.1112 7.36672 15.906 7.36672C18.7009 7.36672 19.0328 7.3777 20.1374 7.42763C21.1582 7.47414 21.7121 7.64548 22.0818 7.78792C22.5706 7.97745 22.9194 8.20502 23.2861 8.57134C23.6529 8.93766 23.879 9.28706 24.0693 9.77605C24.2131 10.1447 24.3831 10.6999 24.4295 11.721C24.4803 12.8259 24.4904 13.1566 24.4904 15.9536C24.4904 18.7505 24.4803 19.0812 24.4295 20.1861C24.383 21.2073 24.2121 21.7623 24.0693 22.1311C23.879 22.6201 23.6523 22.969 23.2861 23.335C22.9199 23.701 22.5706 23.928 22.0818 24.1184C21.7132 24.2622 21.1582 24.4323 20.1374 24.4787C19.0337 24.5294 18.7022 24.5396 15.906 24.5396C13.1099 24.5396 12.7793 24.5294 11.676 24.4787V24.4787ZM11.5893 5.54341C10.4746 5.59418 9.71295 5.77098 9.04778 6.02988C8.35891 6.29725 7.77574 6.65595 7.193 7.23794C6.61025 7.81993 6.25258 8.40418 5.98529 9.09326C5.72646 9.75904 5.54972 10.5205 5.49896 11.6355C5.44736 12.7522 5.43555 13.1092 5.43555 15.9535C5.43555 18.7978 5.44736 19.1548 5.49896 20.2715C5.54972 21.3866 5.72646 22.1479 5.98529 22.8137C6.25258 23.5024 6.61034 24.0873 7.193 24.669C7.77566 25.2508 8.35891 25.609 9.04778 25.8771C9.71421 26.136 10.4746 26.3128 11.5893 26.3636C12.7063 26.4143 13.0626 26.427 15.906 26.427C18.7495 26.427 19.1064 26.4152 20.2228 26.3636C21.3375 26.3128 22.0987 26.136 22.7643 25.8771C23.4527 25.609 24.0363 25.251 24.6191 24.669C25.2018 24.087 25.5587 23.5024 25.8268 22.8137C26.0856 22.1479 26.2632 21.3865 26.3131 20.2715C26.3639 19.1539 26.3757 18.7978 26.3757 15.9535C26.3757 13.1092 26.3639 12.7522 26.3131 11.6355C26.2623 10.5204 26.0856 9.75862 25.8268 9.09326C25.5587 8.4046 25.2009 7.82085 24.6191 7.23794C24.0372 6.65502 23.4527 6.29725 22.7651 6.02988C22.0987 5.77098 21.3374 5.59335 20.2236 5.54341C19.1072 5.49263 18.7503 5.47998 15.9069 5.47998C13.0634 5.47998 12.7063 5.49179 11.5893 5.54341Z" fill="white"/>
</svg>
