<svg width="32" height="32" viewBox="0 0 32 32" fill="none" xmlns="http://www.w3.org/2000/svg">
<path d="M11.0855 24.181V12.8743H7.3307V24.181H11.0859H11.0855ZM9.20891 11.3308C10.518 11.3308 11.333 10.4626 11.333 9.37758C11.3085 8.26782 10.518 7.42383 9.2338 7.42383C7.9487 7.42383 7.10938 8.26782 7.10938 9.37748C7.10938 10.4625 7.92409 11.3307 9.1843 11.3307H9.20861L9.20891 11.3308ZM13.1639 24.181H16.9185V17.8675C16.9185 17.5301 16.943 17.1917 17.0422 16.9507C17.3135 16.2752 17.9313 15.576 18.9688 15.576C20.3271 15.576 20.8708 16.6128 20.8708 18.1329V24.181H24.6253V17.6981C24.6253 14.2253 22.7731 12.6092 20.3028 12.6092C18.2775 12.6092 17.388 13.7422 16.8938 14.5139H16.9188V12.8747H13.1641C13.2131 13.9354 13.1638 24.1814 13.1638 24.1814L13.1639 24.181Z" fill="white"/>
</svg>
