<svg width="230" height="57" viewBox="0 0 230 57" fill="none" xmlns="http://www.w3.org/2000/svg">
<path fill-rule="evenodd" clip-rule="evenodd" d="M46.4221 28.7089L23.2113 5.49805L19.9618 8.74756L19.9619 8.74769L0.000428195 28.7092L3.24995 31.9587L16.4799 18.7287L23.2113 25.4601L26.4608 22.2106L19.7294 15.4792L23.2114 11.9972L43.1726 31.9584L46.4221 28.7089ZM6.73163 35.4407L6.7315 35.4406L16.7122 25.4599L19.9617 28.7094L13.2304 35.4407L23.211 45.4213L33.192 35.4403L29.7105 31.9588L22.9792 38.6901L19.7296 35.4406L26.461 28.7093L26.4607 28.7091L29.7103 25.4596L39.6909 35.4402L39.6909 35.4403L39.6909 35.4404L26.4605 48.6708L26.4607 48.671L23.2112 51.9205L6.73152 35.4408L6.73163 35.4407Z" fill="white"/>
<path d="M63.9536 19.9615V22.3841H56.2691V27.7243H62.2604V30.1469H56.2691V38.0659H53.2994V19.9615H63.9536ZM69.6754 25.7966C70.1095 25.0672 70.6826 24.5028 71.3946 24.1034C72.124 23.6866 72.9836 23.4782 73.9735 23.4782V26.5521H73.2181C72.0545 26.5521 71.1689 26.8473 70.561 27.4377C69.9706 28.0282 69.6754 29.0528 69.6754 30.5116V38.0659H66.7057V23.7127H69.6754V25.7966ZM75.7133 30.8242C75.7133 29.3828 76.0086 28.1063 76.599 26.9949C77.2068 25.8835 78.0231 25.0238 79.0477 24.416C80.0897 23.7908 81.2358 23.4782 82.4862 23.4782C83.615 23.4782 84.5962 23.704 85.4298 24.1555C86.2807 24.5897 86.958 25.1367 87.4616 25.7966V23.7127H90.4573V38.0659H87.4616V35.9299C86.958 36.6071 86.2721 37.1716 85.4037 37.6231C84.5354 38.0746 83.5455 38.3004 82.4341 38.3004C81.2011 38.3004 80.0723 37.9878 79.0477 37.3626C78.0231 36.72 77.2068 35.8343 76.599 34.7055C76.0086 33.5594 75.7133 32.2656 75.7133 30.8242ZM87.4616 30.8763C87.4616 29.8864 87.2533 29.0268 86.8365 28.2974C86.437 27.568 85.9074 27.0123 85.2474 26.6302C84.5875 26.2481 83.8755 26.0571 83.1114 26.0571C82.3473 26.0571 81.6353 26.2481 80.9753 26.6302C80.3154 26.9949 79.7771 27.5419 79.3603 28.2713C78.9608 28.9833 78.7611 29.8343 78.7611 30.8242C78.7611 31.814 78.9608 32.6824 79.3603 33.4291C79.7771 34.1759 80.3154 34.749 80.9753 35.1484C81.6526 35.5304 82.3646 35.7215 83.1114 35.7215C83.8755 35.7215 84.5875 35.5304 85.2474 35.1484C85.9074 34.7663 86.437 34.2106 86.8365 33.4812C87.2533 32.7345 87.4616 31.8661 87.4616 30.8763ZM101.6 23.4782C102.728 23.4782 103.736 23.7127 104.621 24.1816C105.524 24.6504 106.228 25.3451 106.731 26.2655C107.235 27.1859 107.487 28.2974 107.487 29.5998V38.0659H104.543V30.0427C104.543 28.7576 104.222 27.7764 103.579 27.0991C102.937 26.4044 102.06 26.0571 100.948 26.0571C99.8369 26.0571 98.9512 26.4044 98.2913 27.0991C97.6487 27.7764 97.3275 28.7576 97.3275 30.0427V38.0659H94.3578V23.7127H97.3275V25.3538C97.8137 24.7633 98.4302 24.3031 99.177 23.9732C99.9411 23.6432 100.749 23.4782 101.6 23.4782ZM116.954 30.9023L123.57 38.0659H119.558L114.244 31.8922V38.0659H111.275V18.7893H114.244V29.9906L119.454 23.7127H123.57L116.954 30.9023ZM131.924 38.3004C130.57 38.3004 129.346 37.9965 128.251 37.3886C127.157 36.7634 126.298 35.8951 125.673 34.7837C125.047 33.6549 124.735 32.3524 124.735 30.8763C124.735 29.4175 125.056 28.1237 125.699 26.9949C126.341 25.8661 127.218 24.9978 128.33 24.39C129.441 23.7821 130.683 23.4782 132.055 23.4782C133.427 23.4782 134.668 23.7821 135.78 24.39C136.891 24.9978 137.768 25.8661 138.411 26.9949C139.053 28.1237 139.375 29.4175 139.375 30.8763C139.375 32.335 139.045 33.6288 138.385 34.7576C137.725 35.8864 136.822 36.7634 135.676 37.3886C134.547 37.9965 133.296 38.3004 131.924 38.3004ZM131.924 35.7215C132.689 35.7215 133.401 35.5391 134.06 35.1744C134.738 34.8097 135.285 34.2627 135.702 33.5333C136.118 32.8039 136.327 31.9182 136.327 30.8763C136.327 29.8343 136.127 28.9573 135.728 28.2453C135.328 27.5159 134.799 26.9688 134.139 26.6042C133.479 26.2395 132.767 26.0571 132.003 26.0571C131.238 26.0571 130.526 26.2395 129.867 26.6042C129.224 26.9688 128.712 27.5159 128.33 28.2453C127.948 28.9573 127.756 29.8343 127.756 30.8763C127.756 32.4219 128.147 33.6201 128.929 34.4711C129.728 35.3047 130.726 35.7215 131.924 35.7215ZM156.768 25.1714C156.247 23.9732 155.448 23.0354 154.371 22.3581C153.312 21.6634 152.061 21.3161 150.62 21.3161C149.265 21.3161 148.05 21.6287 146.973 22.2539C145.896 22.8791 145.045 23.7734 144.42 24.937C143.795 26.0832 143.482 27.4204 143.482 28.9486C143.482 30.4768 143.795 31.8227 144.42 32.9863C145.045 34.1498 145.896 35.0442 146.973 35.6694C148.05 36.2946 149.265 36.6071 150.62 36.6071C151.888 36.6071 153.025 36.338 154.032 35.7996C155.057 35.2439 155.873 34.4624 156.481 33.4552C157.106 32.4306 157.462 31.241 157.549 29.8864H149.891V28.4016H159.477V29.7301C159.39 31.3278 158.956 32.7779 158.174 34.0804C157.393 35.3655 156.342 36.3814 155.022 37.1281C153.72 37.8749 152.252 38.2483 150.62 38.2483C148.935 38.2483 147.407 37.8575 146.035 37.076C144.663 36.2772 143.578 35.1744 142.779 33.7678C141.998 32.3437 141.607 30.7373 141.607 28.9486C141.607 27.1599 141.998 25.5622 142.779 24.1555C143.578 22.7315 144.663 21.6287 146.035 20.8472C147.407 20.0484 148.935 19.649 150.62 19.649C152.565 19.649 154.267 20.1352 155.726 21.1077C157.184 22.0802 158.244 23.4348 158.904 25.1714H156.768ZM161.983 30.9284C161.983 29.4696 162.27 28.1932 162.843 27.0991C163.434 25.9877 164.241 25.1367 165.266 24.5462C166.308 23.9384 167.48 23.6345 168.782 23.6345C170.137 23.6345 171.3 23.9471 172.273 24.5723C173.263 25.1975 173.975 25.9963 174.409 26.9688V23.8429H176.232V38.0659H174.409V34.9139C173.958 35.8864 173.237 36.694 172.247 37.3365C171.274 37.9617 170.111 38.2743 168.756 38.2743C167.471 38.2743 166.308 37.9704 165.266 37.3626C164.241 36.7548 163.434 35.8951 162.843 34.7837C162.27 33.6722 161.983 32.3871 161.983 30.9284ZM174.409 30.9544C174.409 29.8082 174.175 28.801 173.706 27.9327C173.237 27.0644 172.594 26.3958 171.778 25.9269C170.979 25.458 170.094 25.2235 169.121 25.2235C168.114 25.2235 167.211 25.4493 166.412 25.9008C165.613 26.3523 164.979 27.0123 164.51 27.8806C164.059 28.7315 163.833 29.7475 163.833 30.9284C163.833 32.0919 164.059 33.1165 164.51 34.0022C164.979 34.8705 165.613 35.5391 166.412 36.008C167.211 36.4595 168.114 36.6853 169.121 36.6853C170.094 36.6853 170.979 36.4509 171.778 35.982C172.594 35.5131 173.237 34.8445 173.706 33.9762C174.175 33.1078 174.409 32.1006 174.409 30.9544ZM182.219 26.3697C182.618 25.484 183.226 24.7981 184.042 24.3118C184.876 23.8255 185.892 23.5824 187.09 23.5824V25.484H186.595C185.275 25.484 184.216 25.84 183.417 26.5521C182.618 27.2641 182.219 28.4537 182.219 30.1208V38.0659H180.395V23.8429H182.219V26.3697ZM189 30.9544C189 29.4783 189.295 28.1932 189.885 27.0991C190.476 25.9877 191.292 25.1367 192.334 24.5462C193.376 23.9384 194.565 23.6345 195.903 23.6345C197.657 23.6345 199.098 24.0687 200.227 24.937C201.373 25.8053 202.111 26.9862 202.441 28.4797H200.487C200.244 27.4551 199.715 26.6563 198.898 26.0832C198.1 25.4927 197.101 25.1975 195.903 25.1975C194.948 25.1975 194.088 25.4146 193.324 25.8487C192.56 26.2829 191.952 26.9341 191.5 27.8024C191.066 28.6534 190.849 29.704 190.849 30.9544C190.849 32.2048 191.066 33.2641 191.5 34.1324C191.952 35.0008 192.56 35.652 193.324 36.0862C194.088 36.5203 194.948 36.7374 195.903 36.7374C197.101 36.7374 198.1 36.4509 198.898 35.8778C199.715 35.2873 200.244 34.4711 200.487 33.4291H202.441C202.111 34.8879 201.373 36.0601 200.227 36.9458C199.081 37.8315 197.639 38.2743 195.903 38.2743C194.565 38.2743 193.376 37.9791 192.334 37.3886C191.292 36.7808 190.476 35.9299 189.885 34.8358C189.295 33.7243 189 32.4306 189 30.9544ZM207.632 23.8429V38.0659H205.809V23.8429H207.632ZM209.117 19.649L203.777 22.7488V21.3422L209.117 18.0078V19.649ZM210.928 30.9284C210.928 29.4696 211.214 28.1932 211.788 27.0991C212.378 25.9877 213.186 25.1367 214.21 24.5462C215.252 23.9384 216.424 23.6345 217.727 23.6345C219.081 23.6345 220.245 23.9471 221.217 24.5723C222.207 25.1975 222.919 25.9963 223.354 26.9688V23.8429H225.177V38.0659H223.354V34.9139C222.902 35.8864 222.181 36.694 221.191 37.3365C220.219 37.9617 219.055 38.2743 217.701 38.2743C216.416 38.2743 215.252 37.9704 214.21 37.3626C213.186 36.7548 212.378 35.8951 211.788 34.7837C211.214 33.6722 210.928 32.3871 210.928 30.9284ZM223.354 30.9544C223.354 29.8082 223.119 28.801 222.65 27.9327C222.181 27.0644 221.539 26.3958 220.723 25.9269C219.924 25.458 219.038 25.2235 218.065 25.2235C217.058 25.2235 216.155 25.4493 215.356 25.9008C214.557 26.3523 213.924 27.0123 213.455 27.8806C213.003 28.7315 212.777 29.7475 212.777 30.9284C212.777 32.0919 213.003 33.1165 213.455 34.0022C213.924 34.8705 214.557 35.5391 215.356 36.008C216.155 36.4595 217.058 36.6853 218.065 36.6853C219.038 36.6853 219.924 36.4509 220.723 35.982C221.539 35.5131 222.181 34.8445 222.65 33.9762C223.119 33.1078 223.354 32.1006 223.354 30.9544Z" fill="white"/>
</svg>
