<svg width="47" height="56" viewBox="0 0 47 56" fill="none" xmlns="http://www.w3.org/2000/svg">
<path fill-rule="evenodd" clip-rule="evenodd" d="M46.422 27.7089L23.2112 4.49805L19.9617 7.74756L19.9618 7.74769L0.000306125 27.7092L3.24982 30.9587L16.4798 17.7287L23.2111 24.4601L26.4607 21.2106L19.7293 14.4792L23.2113 10.9972L43.1725 30.9584L46.422 27.7089ZM6.73151 34.4407L6.73138 34.4406L16.712 24.4599L19.9616 27.7094L13.2303 34.4407L23.2109 44.4213L33.1919 34.4403L29.7103 30.9588L22.979 37.6901L19.7295 34.4406L26.4608 27.7093L26.4606 27.7091L29.7101 24.4596L39.6908 34.4402L39.6907 34.4403L39.6908 34.4404L26.4604 47.6708L26.4606 47.671L23.2111 50.9205L6.7314 34.4408L6.73151 34.4407Z" fill="white"/>
</svg>
