<svg width="32" height="32" viewBox="0 0 32 32" fill="none" xmlns="http://www.w3.org/2000/svg">
<path fill-rule="evenodd" clip-rule="evenodd" d="M10.293 20.1924C9.90252 20.5829 9.90252 21.2161 10.293 21.6066C10.6836 21.9971 11.3167 21.9971 11.7073 21.6066L15.9497 17.3642L20.1924 21.6068C20.5829 21.9974 21.2161 21.9974 21.6066 21.6068C21.9971 21.2163 21.9971 20.5831 21.6066 20.1926L17.3639 15.9499L21.6068 11.7071C21.9973 11.3166 21.9973 10.6834 21.6068 10.2929C21.2162 9.90237 20.5831 9.90237 20.1925 10.2929L15.9497 14.5357L11.7071 10.2931C11.3166 9.9026 10.6834 9.9026 10.2929 10.2931C9.90237 10.6836 9.90237 11.3168 10.2929 11.7073L14.5355 15.9499L10.293 20.1924Z" fill="white"/>
</svg>
