<svg width="32" height="32" viewBox="0 0 32 32" fill="none" xmlns="http://www.w3.org/2000/svg">
<path fill-rule="evenodd" clip-rule="evenodd" d="M8 11C8 10.4477 8.44771 10 9 10H23C23.5523 10 24 10.4477 24 11C24 11.5523 23.5523 12 23 12H9C8.44771 12 8 11.5523 8 11ZM8 16C8 15.4477 8.44771 15 9 15H23C23.5523 15 24 15.4477 24 16C24 16.5523 23.5523 17 23 17H9C8.44771 17 8 16.5523 8 16ZM9 20C8.44771 20 8 20.4477 8 21C8 21.5523 8.44771 22 9 22H23C23.5523 22 24 21.5523 24 21C24 20.4477 23.5523 20 23 20H9Z" fill="white"/>
</svg>
