<svg width="24" height="24" viewBox="0 0 24 24" fill="none" xmlns="http://www.w3.org/2000/svg">
<g clip-path="url(#clip0_356_1249)">
<path d="M19.5053 7.95951C18.0656 13.6146 13.6137 18.0666 7.95859 19.5062C5.81774 20.0513 3.99908 18.2091 3.99908 16V15C3.99908 14.4477 4.4479 14.0052 4.99749 13.9507C5.92603 13.8587 6.81722 13.6397 7.65344 13.3112L9.17272 14.8305C11.6438 13.648 13.647 11.6447 14.8296 9.17365L13.3103 7.65437C13.6387 6.81815 13.8578 5.92696 13.9498 4.99841C14.0043 4.44882 14.4468 4 14.999 4H15.999C18.2082 4 20.0503 5.81867 19.5053 7.95951Z" stroke="#292929" stroke-width="1.99999" stroke-linecap="round" stroke-linejoin="round"/>
</g>
<defs>
<clipPath id="clip0_356_1249">
<rect width="23.9999" height="23.9999" fill="white"/>
</clipPath>
</defs>
</svg>
