<svg width="32" height="32" viewBox="0 0 32 32" fill="none" xmlns="http://www.w3.org/2000/svg">
<path d="M5.43555 25.5891L6.93711 20.0059C5.72614 17.831 5.3414 15.293 5.8535 12.8578C6.36559 10.4225 7.74018 8.25325 9.72501 6.74812C11.7098 5.24299 14.1718 4.50292 16.6591 4.66371C19.1463 4.82451 21.4921 5.87538 23.2659 7.62349C25.0398 9.37161 26.1226 11.6997 26.3159 14.1806C26.5091 16.6614 25.7997 19.1287 24.3179 21.1295C22.8361 23.1304 20.6812 24.5306 18.2487 25.0734C15.8163 25.6161 13.2693 25.2649 11.0753 24.0841L5.43555 25.5891ZM11.3472 21.9949L11.696 22.2014C13.2852 23.1418 15.1413 23.531 16.9752 23.3082C18.809 23.0855 20.5176 22.2634 21.8345 20.97C23.1515 19.6767 24.0029 17.9847 24.2562 16.1578C24.5094 14.3309 24.1501 12.4717 23.2344 10.8699C22.3187 9.26813 20.898 8.01374 19.1937 7.30222C17.4893 6.59071 15.5971 6.46203 13.8118 6.93626C12.0266 7.41048 10.4486 8.46096 9.3238 9.924C8.199 11.387 7.59057 13.1804 7.59331 15.0247C7.59181 16.554 8.01544 18.0536 8.81703 19.3567L9.03576 19.7167L8.1963 22.8329L11.3472 21.9949Z" fill="white"/>
<path fill-rule="evenodd" clip-rule="evenodd" d="M19.8132 16.4584C19.6087 16.2938 19.3693 16.1779 19.1132 16.1196C18.8571 16.0613 18.591 16.0621 18.3352 16.122C17.951 16.2814 17.7027 16.8834 17.4544 17.1844C17.402 17.2565 17.3251 17.3071 17.238 17.3267C17.151 17.3462 17.0597 17.3334 16.9815 17.2906C15.5747 16.7405 14.3955 15.7318 13.6355 14.4282C13.5706 14.3468 13.54 14.2435 13.5499 14.1401C13.5598 14.0366 13.6096 13.941 13.6887 13.8734C13.9656 13.5997 14.1689 13.2607 14.2798 12.8878C14.3045 12.4764 14.2101 12.0667 14.0079 11.7074C13.8516 11.2037 13.5542 10.7552 13.1507 10.4149C12.9426 10.3215 12.7119 10.2901 12.4864 10.3247C12.2608 10.3593 12.0501 10.4582 11.8797 10.6097C11.5838 10.8645 11.3489 11.1824 11.1924 11.5399C11.0359 11.8974 10.9616 12.2854 10.9752 12.6753C10.9761 12.8943 11.0039 13.1123 11.058 13.3245C11.1952 13.8344 11.4063 14.3215 11.6846 14.7705C11.8854 15.1144 12.1044 15.4474 12.3408 15.7679C13.1091 16.8208 14.0748 17.7147 15.1843 18.4001C15.7411 18.7484 16.3362 19.0316 16.9578 19.2441C17.6036 19.5363 18.3165 19.6485 19.021 19.5687C19.4224 19.5081 19.8027 19.3499 20.1284 19.108C20.4542 18.8662 20.7154 18.5481 20.8891 18.1818C20.9911 17.9605 21.0221 17.7131 20.9778 17.4736C20.8714 16.9837 20.2152 16.6945 19.8132 16.4584Z" fill="white"/>
</svg>
